{"title":"Falcon.Rising.2014.WEBRip.XviD.AC3-N3kr4","uid":11006939,"size":1996889083,"categoryP":"video","categoryS":"hd___movies","magnet":"?xt=urn:btih:7509bd44c2b00a8d0e3e0d3538907d210e71d18b&amp;dn=Falcon.Rising.2014.WEBRip.XviD.AC3-N3kr4&amp;tr=udp%3A%2F%2Ftracker.openbittorrent.com%3A80&amp;tr=udp%3A%2F%2Fopen.demonii.com%3A1337&amp;tr=udp%3A%2F%2Ftracker.coppersurfer.tk%3A6969&amp;tr=udp%3A%2F%2Fexodus.desync.com%3A6969","seeders":2,"leechers":0,"uploader":"Falcon.G13","files":2,"time":1410255561,"description":" &lt;a href=&quot;http://i.imgur.com/ZJI6EMv.jpg&quot; rel=&quot;nofollow&quot; target=&quot;_NEW&quot;&gt;http://i.imgur.com/ZJI6EMv.jpg&lt;/a&gt;\n &lt;a href=&quot;\nhttp://i.imgur.com/DXsU7Ro.jpg&quot; rel=&quot;nofollow&quot; target=&quot;_NEW&quot;&gt;\nhttp://i.imgur.com/DXsU7Ro.jpg&lt;/a&gt; &lt;a href=&quot;\nhttp://i.imgur.com/ARUFMYg.jpg&quot; rel=&quot;nofollow&quot; target=&quot;_NEW&quot;&gt;\nhttp://i.imgur.com/ARUFMYg.jpg&lt;/a&gt; &lt;a href=&quot;\nhttp://i.imgur.com/qAtuFYG.jpg&quot; rel=&quot;nofollow&quot; target=&quot;_NEW&quot;&gt;\nhttp://i.imgur.com/qAtuFYG.jpg&lt;/a&gt; &lt;a href=&quot;\nhttp://i.imgur.com/pGg8eGx.jpg&quot; rel=&quot;nofollow&quot; target=&quot;_NEW&quot;&gt;\nhttp://i.imgur.com/pGg8eGx.jpg&lt;/a&gt; &lt;a href=&quot;\nhttp://i.imgur.com/x1Ww5Xf.jpg&quot; rel=&quot;nofollow&quot; target=&quot;_NEW&quot;&gt;\nhttp://i.imgur.com/x1Ww5Xf.jpg&lt;/a&gt; &lt;a href=&quot;\nhttp://i.imgur.com/BBtBMSE.jpg&quot; rel=&quot;nofollow&quot; target=&quot;_NEW&quot;&gt;\nhttp://i.imgur.com/BBtBMSE.jpg&lt;/a&gt;\n\nGeneral\nComplete name : Falcon.Rising.2014.WEBRip.XviD,AC3-N3kr4.avi\nFormat : AVI\nFormat/Info : Audio Video Interleave\nFormat profile : OpenDML\nFile size : 1.86 GiB\nDuration : 1h 40mn\nOverall bit rate : 2 637 Kbps\nWriting application : Lavf55.7.100\n\nVideo\nID : 0\nFormat : MPEG-4 Visual\nFormat profile : Advanced Simple@L1\nFormat settings, BVOP : No\nFormat settings, QPel : No\nFormat settings, GMC : No warppoints\nFormat settings, Matrix : Default (H.263)\nCodec ID : XVID\nCodec ID/Hint : XviD\nDuration : 1h 40mn\nBit rate : 1 986 Kbps\nWidth : 720 pixels\nHeight : 400 pixels\nDisplay aspect ratio : 16:9\nFrame rate : 23.976 fps\nColor space : YUV\nChroma subsampling : 4:2:0\nBit depth : 8 bits\nScan type : Progressive\nCompression mode : Lossy\nBits/(Pixel*Frame) : 0.288\nStream size : 1.40 GiB (75%)\nWriting library : Lavc55.12.100\n\nAudio\nID : 1\nFormat : AC-3\nFormat/Info : Audio Coding 3\nMode extension : CM (complete main)\nFormat settings, Endianness : Big\nCodec ID : 2000\nDuration : 1h 40mn\nBit rate mode : Constant\nBit rate : 640 Kbps\nChannel(s) : 6 channels\nChannel positions : Front: L C R, Side: L R, LFE\nSampling rate : 48.0 KHz\nBit depth : 16 bits\nCompression mode : Lossy\nStream size : 462 MiB (24%)\nAlignment : Aligned on interleaves\nInterleave, duration : 32 ms (0.77 video frame)\nInterleave, preload duration : 32 ms","torrent":{"xt":"urn:btih:7509bd44c2b00a8d0e3e0d3538907d210e71d18b","amp;dn":"Falcon.Rising.2014.WEBRip.XviD.AC3-N3kr4","amp;tr":["udp%3A%2F%2Ftracker.openbittorrent.com%3A80","udp%3A%2F%2Fopen.demonii.com%3A1337","udp%3A%2F%2Ftracker.coppersurfer.tk%3A6969","udp%3A%2F%2Fexodus.desync.com%3A6969"],"infoHash":"7509bd44c2b00a8d0e3e0d3538907d210e71d18b","infoHashBuffer":{"type":"Buffer","data":[117,9,189,68,194,176,10,141,14,62,13,53,56,144,125,33,14,113,209,139]},"announce":[],"urlList":[]}}